# xmcd
#
# Track frame offsets: 
#        150
#        12136
#        24951
#        37336
#        48446
#        59744
#        71490
#        82778
#        93967
#        107566
#        121376
#        132920
#
# Disc length: 1954 seconds
#
# Revision: 2
# Processed by: cddbd v1.5.2PL0 Copyright (c) Steve Scherf et al.
# Submitted via: ExactAudioCopyFreeDBPlugin 1.0
#
DISCID=9807a00c
DTITLE=Glen Campbell - 1963 - Too Late Too Worry To Blue To Cry
DYEAR=1963
DGENRE=Country
TTITLE0=Walking The Floor Over You
TTITLE1=I'll Hold You In My Heart
TTITLE2=Be Honest With Me
TTITLE3=Oh My Darlin
TTITLE4=Tomorrow Never Comes
TTITLE5=Too Late Too Worry To Blue To Cry
TTITLE6=Here I Am
TTITLE7=I Hang My Head And Cry
TTITLE8=When You Cry, You Cry Alone
TTITLE9=How Do I Tell My Heart Not To Break
TTITLE10=It's Been So Long Darlin
TTITLE11=The Long Black Limousine
EXTD=
EXTT0=
EXTT1=
EXTT2=
EXTT3=
EXTT4=
EXTT5=
EXTT6=
EXTT7=
EXTT8=
EXTT9=
EXTT10=
EXTT11=
PLAYORDER=
